<?xml version="1.0" encoding="iso-8859-1"?>
<!-- Generator: Adobe Illustrator 19.0.0, SVG Export Plug-In . SVG Version: 6.00 Build 0)  -->
<svg version="1.1" id="Layer_1" xmlns="http://www.w3.org/2000/svg" xmlns:xlink="http://www.w3.org/1999/xlink" x="0px" y="0px"
	 viewBox="0 0 512 512" style="enable-background:new 0 0 512 512;" xml:space="preserve">
<g>
	<g>
		<g>
			<rect x="248.163" y="0" width="15.673" height="143.997"/>
			<rect x="248.163" y="368.003" width="15.673" height="143.997"/>
			
				<rect x="53.89" y="118.059" transform="matrix(0.7071 0.7071 -0.7071 0.7071 125.8931 -52.1423)" width="143.996" height="15.673"/>
			
				<rect x="314.116" y="378.272" transform="matrix(-0.7071 -0.7071 0.7071 -0.7071 386.118 932.1534)" width="143.996" height="15.673"/>
			<rect x="0" y="248.163" width="143.997" height="15.673"/>
			<rect x="368.003" y="248.163" width="143.997" height="15.673"/>
			
				<rect x="118.076" y="314.128" transform="matrix(-0.7071 -0.7071 0.7071 -0.7071 -58.0844 748.1925)" width="15.673" height="143.996"/>
			
				<rect x="378.258" y="53.902" transform="matrix(0.7071 0.7071 -0.7071 0.7071 202.1094 -236.1349)" width="15.673" height="143.996"/>
			<rect x="247.996" y="248.163" width="16" height="15.673"/>
			<rect x="216.001" y="248.163" width="16" height="15.673"/>
			<rect x="280.001" y="248.163" width="16.001" height="15.673"/>
		</g>
	</g>
</g>
<g>
</g>
<g>
</g>
<g>
</g>
<g>
</g>
<g>
</g>
<g>
</g>
<g>
</g>
<g>
</g>
<g>
</g>
<g>
</g>
<g>
</g>
<g>
</g>
<g>
</g>
<g>
</g>
<g>
</g>
</svg>
